<?xml version="1.0" encoding="UTF-8"?>
<svg id="Capa_2" data-name="Capa 2" xmlns="http://www.w3.org/2000/svg" viewBox="0 0 1189.48 867.83">
  <style>path,rect,circle{fill:#d8d6d2;}</style>
  <g id="Capa_1-2" data-name="Capa 1">
    <g id="ZTMVba">
      <g>
        <g>
          <path d="M1048.69,599.98c-7.14,7.23-9.24,15.02-4.54,24.33,1.12,2.22,13.5,15.21,7.66,16.32-3.13.59-11.12-9.61-12.67-12.31-4.51-7.85-5.45-15.66-1.68-24.06,7.18-16,36.17-20.2,20.7-43.95-.78-1.2-8.74-8.62-3.3-9.68,4.82-.94,12.79,13.24,13.39,17.59,2.69,19.4-9.13,21.19-19.56,31.77Z"/>
          <path d="M1088.07,582.91c1.15,1.13,3.12,7.59,3.21,9.35.8,15.61-20.24,18.52-15.48,34.41.78,2.6,12.99,14.2,5.01,13.56-3.89-.31-10.34-9.33-11.41-13.16-5.35-19.1,16.01-22.41,15.96-34.94,0-.95-4.69-16.45,2.71-9.21Z"/>
        </g>
        <g>
          <path d="M856.56,207.42l95.84,77.68c.98.86,1.1,1.35.5,2.52-.26.51-6.54,7.56-7.51,8.56-83.93,85.74-234.2,12.65-218.92-107.92,7.83-61.75,63.88-113.11,126.94-110.19,1.84,1.28.72,13.97.9,17.1,1.45,26.44,1.41,53.44,2.08,79.92.28,10.76-.48,21.59.18,32.33ZM849.34,82.62c-90.73,3.1-147.82,101.69-102.53,182.03,40.76,72.29,143.47,85.63,198.58,22.46l-94.54-78.5-1.51-125.99Z"/>
          <path d="M863.48,77.77c64.86,1.5,117.45,57.61,120.85,121.37,1.08,20.3-7.65,60.91-22.01,75.97-4.59,4.82-8.13-.49-12.88-4.08-28.38-21.44-55.58-44.5-83.62-66.38-.19-4.14-1.28-8.38-1.53-12.47-1.97-32.06-.12-66.72-.92-99.08-.12-4.92-2.65-10.22.1-15.32ZM974.34,173.61c-12.58-49.29-55.62-85.3-105.99-90.99l2,119,104-28.01ZM876.34,205.64c26.07,20.14,51.42,43.19,78.1,62.39.84.6,2.99,2.41,3.56,2.5,2.09.32,8.04-12.06,9.2-14.54,10.93-23.44,14.72-51.8,8.17-76.92l-99.03,26.57Z"/>
          <g>
            <rect x="1065.33" y="230.63" width="83.94" height="5"/>
            <rect x="1065.41" y="153.63" width="80.48" height="5"/>
            <circle cx="1038.71" cy="156.2" r="10.34"/>
            <circle cx="1038.75" cy="194.8" r="10.29"/>
            <circle cx="1038.71" cy="232.92" r="10.28"/>
            <path d="M1126.34,192.63c1.13,1.54.06,5-1.5,5h-58c-1.88,0-1.88-5,0-5h59.5Z"/>
          </g>
        </g>
        <g>
          <path d="M43.34,796.63L1.48,575.98c-3.03-29.13-4.63-62.17,28.85-72.87,34.11-10.9,77.22,3.56,109.01,16.5-7.93-11.42-10.8-25.32-9.01-38.99-4.86,2.14-8.91,4.6-14.45,5.03-4.31.33-12.09.48-13.54-4.52.52-2.46,8.17-1.23,10.43-1.58,5.89-.9,10.97-6.62,13.05-11.95,6.17-15.73-1.64-26.95-4.22-41.76-6.7-38.38,20.65-59.05,49.26-77.24-.39-8.43-1.79-15.69-.43-24.38,2.45-15.53,11.56-29.61,23.43-39.57,10.86-9.12,44.78-25.39,49.55-36.45,2.94-6.83-.24-18.73-.15-26.09.38-31.21,29.49-59.46,45.49-84.57,28.88-45.33,58.76-125.05,121.21-130.79,8.3-.76,17.7,1.74,24.79.78,4.96-.67,11.88-4.3,17.55-5.44,49.93-10.03,103.59,17.34,135.55,54.52s59.94,112.03,53.36,159.39c-2.16,15.6-5.01,15.95-.6,32.84,6.47,24.74,17.88,48.64,1.53,73.1-4.88,7.3-12.98,10.31-16.05,14.95-1.69,2.55-2.52,6.7-4.25,9.75-9.71,17.14-17.39,22.19-10.8,43.76,4.64,15.18,13.35,26.49,14.33,43.67,1.51,26.54-17.68,51.64-45.05,52.54-.96,13.78,3.85,28,14.48,37.03,1.91,1.62,9.86,5.88,9.52,7.46-2.66,3.12-8.12.63-11.36-.62-6.69-2.56-12.11-7.54-16.62-12.87,3.73,23.22-13.74,53.33-39.41,51.05-2.72-2.02,5.43-7.1,7.24-9.72,6.78-9.83,7.38-24.19,4.89-35.56-.42-1.91-.53-5.03-2.71-5.78,2.03,11.85-3.24,24.75-10.18,34.33-1.72,2.37-6.53,5.88-6.85,8.22l17.69,77.13c-.88,8.98-8.89,13.54-15.69,17.9l13.03,55.42c12.8-3.23,25-10.96,37.94-13.55,11.58-2.33,31.18-2.68,42.03,2.07,8.54,3.73,11.73,12.12,22.01,11.49l37.8-148.71c3.05-5.43,7.55-8.41,13.17-10.83,88.2-6.78,176.3-17.36,264.54-23.46,7.4-.51,24.62-2.66,30.41.58,5.34,2.98,7.89,10.83,6.83,16.65l-63.75,220.77h74l-4.18-46.32c-.81-2.73-6.86-3.5-7.76-9.24-.66-4.23-.2-13.32,1.72-17.16s8.62-5.73,9.06-6.44c1.89-3.02-2.48-10.67,5.46-16.04,16.12-10.91,68.45-9.52,87.92-6.53,5.65.87,20.38,3.98,23.8,8.47s.7,11.37,2.46,14.27c1.29,2.11,7.57,2.16,9.06,6.94,1.07,3.43.95,17.32-.68,20.42-1.53,2.92-5.21,3.02-5.65,6.31l-5.23,45.32h61.5c.19,0,2.37,1.02,2.56,1.64.34,1.21-.48,4.36-1.56,4.36h-63.5l-10.77,82.73c-4.07,9.08-28.73,12.8-37.68,13.32-12.67.74-48.86-.79-55.96-13.13-2.46-4.28-4.77-31.32-5.57-38.43-1.67-14.77-2.51-29.71-4.01-44.49h-76.5c-5.61,12.55-4.64,26.15-20.46,30.54l-279.56,47.44c-6.37.85-11.71-.86-17.7-2.27-22.46-5.28-45.01-14.65-67.38-20.68-2.75-.11-14.28,8.46-18.37,10.49-30.56,15.14-63.18,14.07-86.54-12.51-2.97-3.38-7.13-11.88-10.97-12.1l-111.4,16.98c-1.06-2.2-1.03-4.91,1.84-5.42l82.06-13.49c-5.89-16.49,3.39-28.93,8.96-43.61l-22.45-71.4c-2.54-3.05-16.49,2.5-21.56-10.44-6.69-39.43-20.05-79.97-25.67-119.33-.38-2.65-3.06-20.14.21-20.19l32,136.96c25.47-20.26,57.12-36.47,88.5-45.48,23.98-6.88,51.1-11.81,75-2.51-15.02-52.91-23.54-108.45-39.5-160.99-5.46-17.96-12.15-38.78-22.69-54.31-21.89-32.28-66.45-52.12-102.29-64.71-5.18-1.82-24.69-9.23-28.49-7.48-1.26.58-7.6,7.06-10.13,8.89-6.47,4.67-14.38,8.62-20.36,13.64-28.38,23.8-8.64,67.14-53.84,90.16-3.47,1.76-18.99,6.58-19.75,7.51-2.48,3.03-5.07,15.65-5.01,19.82.12,8.89,4.51,15.39,6.07,23.48-14.79-3.17-15.81-23.6-15.49-35.99-6.99,10.63-8.47,24.38-4.59,36.42l-2.42,1.62c-8.36-5.27-7.45-17.97-6.61-26.66.11-1.11.92-3.6-.87-3.37-5.75,13.32-10.01,26.76-3.19,40.67,2.59,5.28,7.42,7.9,10.17,12.81-5.28,4.1-13.59-.44-18.66-3.32-8.02-4.55-14.26-11.39-20.32-18.17.6,9.07-1.55,18.89-7.98,25.54l-.03,1.44c56.1,36.93,75.79,101.44,89.68,163.83,9.47,42.55,19.81,96.33,21.35,139.65.2,5.7,1.72,14.99-5,17.11-12.48,3.94-10.24-16.86-11.05-24.06-7.93-70.22-23.54-187.25-64.18-244.82-29.75-42.14-87.43-76.05-139.32-79.68-57.44-4.01-57.38,26.33-50.2,73.2,8.82,57.58,23.81,116.02,34.4,173.6,4.29,23.34,8.46,46.76,11.89,70.23-1.96,6.13-9.37,6.34-12.02.9-2.16-4.43-3.4-27.02-5.48-28.52l-42.35-1.43c-2.58-.99-.57-5,.78-5h40.5ZM462.35,61.62l-6-17.99-.02,11.99h-4.99c6.49,1.63,9.03,7.77,11.99,12.99l-8.99,1c7.18.41,16.29,4.32,18,12-27.54,1.59-40.46,24.75-56.97,42.53-5.2,5.6-11.41,11.77-17.01,16.99-3.4,3.17-12.24,8.61-14.43,11.57-.72.97-7.05,16.1-6.53,16.84,11.45,5.42,20.01,16.04,32.65,18.89,7.01-5.56,13.71-11.28,23.06-12.55,25.45-3.45,44.59,10.24,49.2,35.31,11.21-2.1,21.01-.03,29.56,7.48,1.86.38,1.71-1.8,2.92-3.07,14.36-15,32.05-16.39,50.56-7.99l-9.04-18.45c-3.44-1.01-7.04-1.84-10.58-2.42-3.74-.62-21.35.09-14.41-6.66,4.2-4.08,11.41-1.77,16.55-2.46,3.4-.46-.73-3.88-1.71-6.31-7.66-19.09-9.15-39.38-15.31-58.69-8.31-26-21.47-26.47-46.51-30.49-1.54-1.09-.57-1.63.51-2.53,1.6-1.34,6.08-3.09,8.25-3.76,2.3-.7,6.05,1.13,5.26-2.23-6.03-.57-11.22,1.31-16.33,4.16-2,1.11-4.64,5.54-7.55,3.71-2.28-1.43-4.26-12.87-2.13-15.87l-4.98,5-1.02-11.99-3.98,2.99ZM555.33,170.62c-3.44-18.18-4.92-37.24-13.51-53.98-.59-1.15-.93-2.77-2.48-3.01,4.41,17.16,5.11,35.65,12.51,51.98.79,1.75,1.5,4.28,3.47,5.02ZM598.33,244.62l-11.85-20.64c-13.85-30.57-8-64.39-20.38-95.62-.76-1.92-2.04-5.63-3.76-6.73,2.07,8.24,4.77,16.1,5.87,24.62,1.46,11.32.24,23.83,2.23,34.77.48,2.64,3.55,9.55,3.51,10.09-.34,5.5-2.03,4.66-.11,12.51,3.63,14.88,12.7,31.18,24.48,41.01ZM634.33,214.62c2-17.06-.24-33.62-4.28-50.2l-3.7-10.79,5.11,51.37,2.87,9.62ZM358.3,169.66c-.87-.75-7.92,1.19-7.94,2.46l6.14,11.33,3.83.18-2.03-13.97ZM252.33,237.62c11.92-19.99,11.64-44.07,21-64.99-11.66,14.51-21.73,31.41-23.08,50.5l2.07,14.49ZM359.33,188.63c-12.77,4.39-8.82,14.81-2.98,23.51-4.04,7.5-10.45-7.15-10.94-11.11-1.17-9.61,5.69-12.59,5.87-15.85.14-2.58-4.82-11.92-7.43-12.21l-13.28,4.9c-5.64,13.45,4.29,51.9,21.37,52.74,7.01.35-.1-13.8,7.38-14.98,2.24,25.14,5.39,49.34,17.84,71.67,13.53,24.28,51.52,61.97,80.64,63.37,19.42.93,51.92-17.1,67.01-29.06,14.96-11.86,26.56-27.69,32.52-45.97-24.78,7.96-49.92-5.74-51.88-32.64-.67-9.21,6.81-19.4-3.75-25.23-4.36-2.41-15.88-3.47-19.68-.2-.76.66-3.47,10.71-4.86,13.39-4.85,9.41-14.78,17.28-25.03,19.97-32.9,8.64-58.52-22.65-46.95-53.71-3.53-1.51-3.99-5-5.56-6.64-.94-.99-20.89-14.38-22.58-15.16-.88-.4-1.64-.99-2.69-.79-1.19.87-8.16,22.56-10.82,26.69-1.15,1.79-2.71,4.49-5.19,4.3l.99-16.99ZM429.34,193.64c-6.46.46-10.78,7.76-16.5,1.01-22.99,37.63,29.53,74.06,56.92,38.89,22.82-29.3-13.35-65.92-44.74-49.74-1.11.57-10.09,6.5-8.67,7.82,16.2-6.66,38.26-9.42,46.74,9.76.72,1.62,2.67,8.16,1.25,9.24-2.7,2.06-7.33-14.08-11.99-12.99.06,25.31-34.19,19.67-23.01-3.99ZM577.77,240.11c0-18.46-14.96-33.42-33.42-33.42s-33.42,14.96-33.42,33.42,14.96,33.42,33.42,33.42,33.42-14.96,33.42-33.42ZM636.34,274.13c.48,8.71,0,18.18,0,27,0,1.64-1.94,9.17-2.5,11.5-.81,3.37-1.89,6.91-3.5,9.99,2.6.67,1.76-.9,2.6-1.87,13.26-15.19,8.77-35.61,3.39-53.12-2.83.61-.04,5.57.01,6.49ZM177.34,326.13c-.61,5.14.44,11.23,0,16.5,6.48-6.32,8.28-16.39,12.14-24.36,7.84-16.15,19.58-29.78,32.86-41.63-19.53,7.61-42.39,27.49-45,49.49ZM366.34,283.13c.46,7.71,0,16.18,0,24,0,2.57-3.19,12.64-4.26,15.74-2.18,6.33-5.56,11.94-8.74,17.74,24.99,7.21,49,17.18,72.57,28.05l1.28-.17,7.87-14.38c-27.08-20.77-55.4-41.65-68.73-74.48-2.44.01-.03,2.86.01,3.49ZM340.34,337.62c5.36,1.52,9.13-5.17,11.17-9.32,3.63-7.39,5.95-17.42,5.82-25.67l-4.13,12.35c-1.43,2.61-2.58,5.37-4.05,7.95-1.24,2.18-10.05,13.49-8.8,14.69ZM603.35,361.62l10.47-19.02,4.51-17.98c-9.3,10.63-15.5,22.43-14.98,37ZM339.34,343.64c-1.9.4-4.23-1.26-5.97-.54-1.04.43-14.8,14.81-14.03,15.52l13.92-8.57,6.08-6.41ZM131.33,405.62l2.84-6.66,22.16-29.33c-11.6,6.63-22.43,19.77-25.55,32.95-.24,1.01-1.32,3.27.54,3.04ZM526.33,460.62c-3.85-10.9-5.98-21.97-7.08-33.5l5.59-33.49c-11.39,19.67-12.73,48.55,1.49,66.99ZM134.33,431.62c1.65-9.1,5.96-17.23,10.21-25.3l7.8-11.69c-9.68,5.98-17.28,20.43-18.88,31.61-.16,1.1-.98,5.41.88,5.38ZM251.34,455.62c21.42-5.77,32.89-28.37,35.98-48.99l-11.17,20.31c-6.12,9.35-15.94,16.81-22.82,25.18-.93,1.13-2.43,1.61-1.99,3.5ZM613.33,455.62c5.68-13.29,4.76-24.93-.22-38.26-.99-2.64-2.58-6.94-4.75-8.74,4.92,15.17,5.29,27.89,4,43.52-.09,1.09-.73,3.73.98,3.47ZM580.35,483.63c19.91-11.69,18.27-39.62,9.48-57.99.84,6.7,2.05,12.44,1.38,19.37-1.3,13.46-10.32,25-10.87,38.62ZM188.33,511.62c-9.5-18.94-7.83-38.82,0-58-13.07,16.3-13.87,41.92,0,58ZM154.33,506.62c-1.69-.03-2.17-.56-1.92,1.41.44,3.5.93,7.83,1.88,11.14.5,1.75,7.63,15.86,10.05,13.44-1.4-9.41-8.69-16.58-10.01-25.99ZM624.66,841.31c2.63,2.88,7.47,2.58,11.06,2.19l276.85-47.14c3.59-1.04,7.18-3.73,8.97-7.03l71.84-248.17c-.39-6.16-4.37-9.69-10.5-9.57-30.45.62-65.2,6.4-96.05,9.03-62.81,5.34-125.93,9.53-188.47,16.53l-8.27,6.73c-14.29,51.13-27.35,103.2-40.08,154.92-9.58,38.95-19.13,78.16-27.64,117.23.17,1.33,1.39,4.3,2.28,5.27ZM639.84,714.63c-9.94-1.15-21.82.85-32,0-1.97-1.48-2.13-2.76.15-3.85l20.34-1.16c-7.58-8.93-25.49-8.9-36.54-8.03-15.22,1.21-30.87,10.87-45.43,15.09.13,4.84,7.42,26.99,4,29.48h-3.09s-26.92-108.84-26.92-108.84c-2.43-4.12-31.65.51-37.24,1.6-31.42,6.1-62.53,21.69-89.32,38.66,8.4,29.33,16.91,58.92,27.5,87.56,15.46,41.79,34.52,87.32,89.02,72.99,36.07-9.48,62.72-45.12,73.01-79.5,4.06-.11,3,4.65,2.99,7.5l-4.49,15.51c20.27-3.11,34.55-17.22,52.46-25.54l6-19.98c-1.75-2.75-4.03-.58-6.48-.5-3.22.11-11.07.6-13.47-.51-3.3-1.53-2.52-4.09,1.44-4.53,6.38-.72,13-.82,19.41-1.08l3.13-13.86c-1.69.57-3.42-.89-4.49-1.01ZM529.35,648.62c1.4,1.28,7.56-6.47,8.97-7.5-2.86-2.73-7.14-3.7-10.98-3.49l2,10.99ZM1050.14,667.92c-4.76.33-34.79,4.12-34.78,9.2,2.26,2.8,5.7,3.91,8.97,5.01,21.01,7.04,67.22,7.27,88.22.21,3.35-1.13,6.61-2.27,8.77-5.21.05-4.12-21.92-7.92-25.61-8.38-13.99-1.73-31.47-1.81-45.58-.83ZM388.33,681.63c-1.07-.98-8.63,5.35-7.99,5.99l8.52,1.98,1.09-2.04-1.61-5.93ZM1009.64,693.27c-.51-.29.02-1.87-.78-1.64-6.43.48-6.88,16.1-5.31,18.8.25.42,7.23,4.97,8.09,5.4,20.42,10.2,89.98,10.77,110.72,1.31,1.08-.49,7.89-4.83,8.54-5.46,2.89-2.8,2.7-17.24-3.2-18.9-5,1.71-9.29,4.72-14.35,6.35-24.15,7.78-81.3,6.77-103.71-5.86ZM1088.23,811.52c2.96-3.55-4.64-8.94-4.56-13.23.09-5.14,5.78-12.84,6.56-19.28,1.54-12.7-1.89-21.95-14.08-26.7-1.8-.7-4.25-.32-5.78-1.22-1.4-.82-2.56-4.98-5.02-5.47,1.52,7.01-2.5,6.55-5.55,9.96s-16.36,16.1-9.46,19.55c4.34,2.18,6.09-1.58,8.74-2.28s5.74.17,8.56-.44c2.24-.49,3.67-3.49,5.7-2.3-2.85,8.96-20.21,16.04-20.68,25.15-.14,2.75,2.27,5.93,1.54,8.64-.6,2.23-8.07,5.82-.89,8.25,4.83,1.64,32.46,2.3,34.92-.64ZM633.33,763.63l-26.99,16.99,23.01-4.48,3.98-12.51ZM421.25,782.7c-13.54,1.47-11.08,16.81-9.91,26.93l20-3.01-10.09-23.91ZM626.33,791.64c-17.63,2.5-35.63,4.56-53.01,8.49-1.11.25-3.23,0-2.98,1.49,17.29-2.55,35.1-4.64,52.18-8.31,1.16-.25,3.98-.13,3.81-1.67ZM622.34,805.64c-7.93,1.32-16.46,2.14-24.2,4.3-1.03.29-3.03.24-2.79,1.68,7.52-1.1,16.19-2.13,23.5-3.99,1.39-.35,3.11.02,3.5-1.99ZM618.35,823.63l-52.57-14.94-12.41,12.43,64.47,20.51c.62-2.95-1.62-5.04-1.52-8.47.09-3.16,2.13-6.3,2.04-9.54ZM1111.33,827.63c-28.5,9.88-60.37,9.24-88.99,0l2.21,23.28c1.84,5.93,23.49,10.24,29.3,10.7,10.58.84,47.7.46,53.93-9.04,1.17-1.79,4.38-23.99,3.55-24.94Z"/>
          <path d="M454.34,412.63h-16.5c-20.03,0-48.41,24.85-59.91,40.09-12.06,15.97-18.8,34.89-27.09,52.89-2.06-1.36-1.37-2.3-1.25-4.2,2.27-35.48,48.51-89.56,85.27-92.76,5.77-.5,15.56-.78,19.48,3.98Z"/>
          <g>
            <path d="M827.1,657.84c5.75-.84,10.85,1.75,14.17,6.42-3.26,5.42-7.87,6.92-8.83,13.95-1.16,8.44.75,11.35,6.57,16.89-2.23,6.13-9,18.28-15.63,20.06-5.58,1.5-7.84-1.72-12.49-1.58-8.01.25-11.53,9.19-20.05.07-11.9-12.74-9.92-45.18,7.51-52.52,9.08-3.82,12.11,1.82,17.42,1.5,2.94-.18,7.51-4.22,11.34-4.78Z"/>
            <path d="M831.33,639.63c.58,8.1-7.42,18.81-15.99,17.99.91-8.09,7.4-17.41,15.99-17.99Z"/>
          </g>
          <g>
            <path d="M500.22,294.72c.19.12,1.34,2.87.23,3.44-3.94,4.17-20.4,1-25.96-.2-12.77-2.75-25.93-8.67-36.97-15.51-.8-2.39-.04-5.47,3.1-4.66,2.63.68,10.01,5.78,13.73,7.31,10.98,4.5,24.72,8.12,36.5,9.5,2.21.26,8.35-.51,9.37.11Z"/>
            <path d="M501.34,226.62c1.21,1.17-1.04,11.31-1,13.51.15,7.64,4.46,16.36,1.73,23.74-2.01,5.43-8.07,9.89-14.09,9.68l-1.63-2.41c.51-2.22,11.57-2.97,11.62-12.84s-5.47-20.55.29-31.07l3.08-.6Z"/>
            <path d="M454.34,304.62c4.77,1,9.01,3.57,13.73,4.77,3.28.83,6.98-1.02,9.25,2.73-4.52,5.71-21.27.93-23.49-4.49-.43-1.04.73-1.96.51-3.01Z"/>
            <path d="M469.33,266.62l.16-3.84c3.85-2.16,7.17-.94,9.83,2.34-2.27,3.74-6.2.76-9.99,1.5Z"/>
            <path d="M416.34,160.62c-2.9-2.91,9.33-7.69,11.22-8.27,12.96-4.01,33.93-1.36,45.48,6.08,2.89,1.86,10.72,8.52,6.35,11.76-1.57,1.17-21.06-6.99-25.05-8.06-13.11-3.53-24.62-4.33-37.99-1.51Z"/>
            <path d="M474.33,220.63c1.24,1.38-6.24,14.01-7.99,11.99-.58-5.37,2.41-10.86,7.99-11.99Z"/>
            <path d="M563.6,229.36c.99.83,5.88.64,4.73,2.75l-8.5,4.35c-4.48-4.76-4.26-12.13-11.48-14.84,4.12,22.05-28.55,25.34-23.01,2.01l-4.5,1.97-1.49-2.46c10.75-12.77,30.29-12.97,40.81.16,1.24,1.55,2.82,5.54,3.44,6.06Z"/>
            <path d="M561.34,264.62c2.89-10.82,5.37-23.65,9.52-33.97.71-1.76,1.55-4.27,3.46-5.02,5.8,13.14,1.38,28.03-9.49,37-1.13.93-1.62,2.43-3.5,1.99Z"/>
          </g>
        </g>
      </g>
    </g>
  </g>
</svg>