<?xml version="1.0" encoding="UTF-8"?>
<svg id="Capa_2" data-name="Capa 2" xmlns="http://www.w3.org/2000/svg" viewBox="0 0 1214.18 926.77">
  <defs>
    <style>
      .cls-1 {
        fill: none;
      }

      .cls-2 {
        fill: #fff;
      }
    </style>
  </defs>
  <g id="Capa_1-2" data-name="Capa 1">
    <g>
      <path class="cls-1" d="M484.61,320.54c.44-3.21-9.32-5.88-8.97-.52,1.54-.08,8.57,3.47,8.97.52Z"/>
      <path class="cls-1" d="M479.64,277.04c-4.76,1.12-7.75,6.35-6.99,10.99,4.2-2.2,5.35-6.97,6.99-10.99Z"/>
      <path class="cls-1" d="M459.64,359.04c-.22,6.22,11.55,10.14,16.35,9.92,2.79-.13,8.52-1.46,6.14-4.94-8.22,1.27-14.95-3.07-22.49-4.99Z"/>
      <path class="cls-1" d="M505.52,349.13c-.98-.62-7.02.17-9.3-.18-11.45-1.76-35.72-8.49-45.92-14.07-2.86-1.56-3.31-5.14-6.6-.21-.46,2.53,10.23,8.17,12.58,9.23,11.49,5.21,34.55,12.35,46.83,10.12,2.85-.52,4.28-3.7,2.42-4.88Z"/>
      <path class="cls-1" d="M426.65,215.56c9.84-.56,13.55-2.02,24.18-.2,12.46,2.14,22.89,7.79,34.79,10.65,2.44-8.69-10.22-13.6-16.75-15.69-15.23-4.87-32.72-5.4-46.2,4.22,1.43,2.25,2.25,1.12,3.99,1.02Z"/>
      <path class="cls-1" d="M450.02,460.16c-45.58-4.64-88.92,51.69-93.93,92.84-.34,2.78.36,7.5,2.36,3.36,2.75-5.67,4.2-14.09,6.7-20.3,15.7-38.96,48.77-78.71,95.48-71.02,3.02-2.51-9.62-4.77-10.62-4.87Z"/>
      <path class="cls-1" d="M506.63,282.04c-2.69-3.15-4.88,9.44-4.98,10.51-.65,7.38,2.83,18.93,1.8,23.75-1.24,5.81-9.55,7.13-10.59,8.92-.49.85-.16,1.89-.22,2.8,21.22-2.39,15-13.88,13.95-28.45-.41-5.67.38-11.81.04-17.54Z"/>
      <circle class="cls-1" cx="950.19" cy="447.8" r="6.22"/>
      <circle class="cls-1" cx="1027.94" cy="371.18" r="6.36"/>
      <path class="cls-1" d="M568.19,283.98c-1.31-1.22-2.1-3.92-3.58-5.42-9.17-9.37-20.97-13.14-33.01-6.06-2.93,1.72-7.3,4.78-6.96,8.53l4.99-1.99c-2.73,23.84,28.37,18.89,22.01-3,7.05,3.57,9.85,8.91,12.48,15.98l8.5-4.49c.51-2.11-3.21-2.4-4.45-3.54Z"/>
      <path class="cls-1" d="M566.65,319.04c13.24-8.8,17.6-24.13,11.98-39-1.93.72-2.49,3.55-3.16,5.33-1.56,4.11-10.12,31.89-8.82,33.67Z"/>
      <path class="cls-1" d="M1105.93,318.23c3.53,0,6.39-2.86,6.39-6.39s-2.86-6.39-6.39-6.39-6.39,2.86-6.39,6.39,2.86,6.39,6.39,6.39Z"/>
      <path class="cls-1" d="M950.64,811.03l62.74-226.75c2.04-10.61-4.52-19.62-15.35-20.15l-291.9,26.89c-10.75,1.72-17.57,7.59-21.22,17.78l-37.28,148.23c-2.58-1.31-6.76-1.52-8.95-2.54-1.64-.76-4.89-5-7.31-6.69-10.17-7.1-38.37-6.23-49.97-2.52-10.47,3.35-20.45,8.88-30.74,12.74l-13.66-53.54c6.66-5.91,16.25-10.27,14.64-20.95l-17.84-73.82c11.32-10.59,18.79-24.8,17.85-40.69,1.42-.24,1.45,1.77,1.7,2.78,3.41,13.66,3.04,31.38-7.78,41.64-1.12,1.06-4.66,2.46-4.8,2.7-3.38,5.82,8.62,2.82,10.67,2.18,19.65-6.05,31.45-29.8,28.2-49.29l10.09,8.4,12.41,5.64c12.6-.78-.97-5.54-5.02-9.03-9.62-8.27-14.08-23.6-13.48-36.03,20.76-.07,41.94-19.82,44-40.5,2.5-25.18-6.79-34.68-14.01-55.97-7.01-20.65,2.29-26.87,12.2-42.85,1.56-2.52,3.03-7.93,4.13-9.37,1.19-1.55,8.85-5.77,11.24-8.26,14.4-14.98,13.9-36.71,9.59-55.67-2.36-10.37-9.37-25.26-10.07-35.01-.47-6.49,3.5-17.26,3.99-24.81,2.82-43.36-19.37-104.54-44.23-139.86-32.62-46.34-89.2-78.58-147.03-64.4-3.68.9-7.89,3.41-11.27,3.75-5.45.55-12.28-1.37-18.89-.91-72.74,5.13-97.49,92.24-133.21,141.79-16.76,23.25-34.11,39.62-36.29,70.71-.46,6.59,2.34,21.98.35,26.35-1.16,2.55-10.4,9.77-13.17,11.83-11.36,8.5-24.88,14.06-35.79,23.21-19.01,15.97-28.14,39.24-23,63.95-19.63,13.27-39.38,23.94-46.81,48.24-7.92,25.88,2.43,34.63,4.16,56.4.91,11.42-5.48,25.36-18.38,25.46-1.95.02-6.88-2.6-6.51.42,1.3,8.22,24.23,4.44,28-2.51-1.84,10.29-1.59,19.49,2.25,29.26,1.13,2.88,3.07,4.91,3.75,7.74-20.82-9.51-43.58-16.6-66.5-18.99-55.18-5.76-77.03,13.92-68.36,70.36l41.87,234.63H12.14c-.45.12-2.52,2.06-2.07,3.06.52,2.2,2.12,2.55,4.13,2.84,6.7.95,40.17-1.16,42.51.53,2.95,5.8,1.63,21.58,4.86,26.14,3.02,4.26,10.73,2.95,10.93-3.01-4.35-26.25-8.53-52.54-13.18-78.74-10.27-57.93-25.47-117.75-33.4-175.61-6-43.76-6.24-70.07,46.25-67.25,46.24,2.48,100.01,27.74,129.43,63.57,49.8,60.64,66.62,182.15,75.9,259.1.97,8.04.72,19.26,2.33,26.67,1.77,8.12,15.34,9.66,15.87-1.77.17-3.73-.75-10.84-1.08-15.01-3.59-44.59-11.73-92.88-21.48-136.52-13.05-58.42-30.56-116.68-75.5-158.5-1.95-1.81-12.31-8.82-11.93-10.84,5.9-6.13,7.59-14.29,6.93-22.64,7.91,9.04,17.93,19.29,29.94,22.55,16.15,4.37,2.78-5.18-.15-9.85-8.34-13.32-5.28-30.87,2.21-43.69,1.88-.21.81,2.1.7,3.2-.92,9.55-1.42,18.54,5.26,26.32,5.31,1.05,1.27-4.86,1.02-8.03-.81-10.55.54-22.18,7.51-30.5-1.78,9.89,1.17,27.58,8.86,34.64,1.01.92,3.92,3.47,5.15,1.36-1.59-4.07-3.95-7.62-5.04-11.97-2.57-10.26-.76-20.76,3.46-30.36,25.08-6.33,42.93-18.52,51.82-43.43,5.02-14.07,5.4-33.03,14.02-44.98,9.17-12.7,28.71-18.24,38.7-30.89,51.66,16.07,112.59,36.87,137.39,89.27,24.99,62.95,33.22,131.41,52.13,196.36-20.71-11.12-50.16-4.76-71.99,1.5-31.71,9.1-65.23,26.11-90.99,46.5l-28.21-134.3-2.79-1.7c-1.79,1.29-.23,15.43.11,18.37,1.94,16.75,7.59,32.94,9.87,49.62l2.79,10.72c3.66,15.96,5.83,32.39,9.71,48.29,4.01,16.43,4.82,21.54,24.42,21.09l22.96,70.4c-1.28,8.66-9.26,19.3-10.63,27.24-1.16,6.69,1.45,12.57.65,19.16l-78.37,15.13-3.4,2.62.84,2.88c2.13,1.44,18.33-2.16,22.22-2.84,30.17-5.29,60.2-11.72,90.23-17.71,24.6,43.12,76.07,39.78,111.09,11.38,21.01,5.94,42.52,15.78,63.5,21.14,5.71,1.46,11.51,3.04,17.48,2.48l291.54-49.45c8.69-2.23,13.56-6.83,16.99-15.01,1.17-2.79,4.19-16.03,5.43-16.26l72.12,1.82.34-3.47-2.42-1.6-68.5-2.01ZM633.65,379.03c4.64-13.86,6.7-28.85,5.98-43.49-.18-3.68-1.36-8.46-1.7-12.3-.1-1.1-1.19-3.4.7-3.2,7.31,19.6,12.21,43.07-4.98,58.99ZM631.34,210.82c5.53,17.31,8.32,35.47,7.29,53.7l-1.98,8.51c-3.51-21.55-3-43.54-7-64.99,1.44-.24,1.36,1.73,1.69,2.78ZM141.65,460.03c1.58-12.83,9.34-24.28,18.98-32.51.99-.84,6.24-5.19,7.01-4.48l-18.81,23.67-7.17,13.31ZM145.65,483.58c-.44,1.6,1.08,2.96-2,2.44,1.22-16.33,8.07-31.83,21.99-40.99l-11.51,16.98c-4.04,7.31-6.27,13.54-8.47,21.57ZM162.65,554.04l12.98,26.99c-11.04-3.29-11.52-17.45-12.98-26.99ZM195.15,553.03c1.45,4.98,3.67,8.38,5.48,13.01-16.29-16.74-16.04-46.23,0-63-7.8,15.99-10.53,32.61-5.48,49.99ZM200.46,370.36c-3.59,7.2-5.57,15.94-9.14,22.88-.87,1.69-1.36,4.46-3.68,3.8v-15.5c0-13.49,14.18-31.63,24.67-39.33,6.5-4.78,14.07-8.67,21.33-12.16-12.92,11.63-25.33,24.56-33.18,40.31ZM260.64,273.54c0-10.35,10.72-30.52,16.78-39.22l7.23-8.77c-12.16,21.07-8.54,48.65-24.01,67.49v-19.5ZM257.64,509.03c9.95-12.21,23.08-21.39,31.19-35.3l7.8-16.69c-2.38,23.09-15.56,45.69-38.99,51.99ZM538.43,326.74c-36.74-9.65-26.36-70.24,16.47-63.47,48.15,7.62,26.88,74.85-16.47,63.47ZM597.69,518.59c-1.99,6.22-7.09,16.1-14.05,17.44.78-13.27,9.51-25.75,10.87-38.62.74-7.04-.17-11.69-1.44-18.32-.2-1.03-1.31-3.28.55-3.05,5.64,13.23,8.56,28.49,4.06,42.54ZM615.4,466.77c4.82,12.61,7.15,23.36,3.18,36.71l-4.94,9.55c5.92-20.26,1.7-39.59-5-58.99l6.75,12.73ZM610.15,395.05l12.48-20.01-4.23,19.26-11.75,22.73c-.38-7.46.75-15.01,3.5-21.98ZM576.15,203.03c4.42,20.37,2.68,40.54,8.23,60.77,2.94,10.73,8.21,23.24,14.85,32.15,1.4,1.88,5.37,4.2,3.92,6.08-16.19-13.66-24.24-33.08-28.52-53.48l3.02-.52c-6.99-14.19-4.26-30.8-6.13-46.37-1.14-9.5-3.49-18.71-6.87-27.62,6.04,7.63,9.42,19.42,11.5,28.99ZM549.82,180.35c6.7,15.13,7.22,31.57,9.81,47.68-13.49-17.96-10.3-42.6-17.98-62.99l8.17,15.31ZM391.57,207.51c10.5-7.69,20.27-16.38,29.09-25.95,16.48-17.87,28.54-40.88,55.97-43.54-1.31-6.97-9.73-10.68-16-12l.48-1.97,7.51,1.98c-1.58-6.59-6.82-11.54-11.99-15.5l4.98,1.5c.69-1.01-1.07-11.52,3-13-2.39,2.71,1.29,20.74,5,18l3-5c-1.08,4.85-2.53,11.11,1.51,14.98l4.49-5.98c-.85,4.37-3.25,12.08.25,15.75,2.85,2.99,7.3-2.22,10.39-3.62,5.69-2.58,11.3-3.01,17.36-1.12l-15.35,3.13-1.64,2.85c11.08,1.29,24.28,3.29,33.7,9.81,19.91,13.78,16,66.79,32.29,85.71-4.73.14-9.46-1.24-14.26-.28-5.01,1.01-8.81,6.79-3.23,7.77,7.31,1.28,16.14.26,23.47,3.53l8.02,19.47c-17.97-10.61-40.97-6.86-52.49,11-7.17-8.66-18.92-10.61-29.5-7.99-2.37-28.51-34.62-44.58-59.69-31.18-4.27,2.28-6.62,5.76-10.62,8-12.51-2.55-21.43-12.54-32.26-18.82l6.5-17.51ZM457.65,252.04c5.74,2.47,7.78,8.46,11.5,12.99,3.74,1.84-.32-8.22-.8-9.2-4.95-10.08-16.33-14.69-27.2-13.78-6.14.52-11.52,3.95-17.5,4.98,2.45-7.35,14.49-10.7,21.46-11.03,53.52-2.55,46.34,74.41-4.73,65.8-21.49-3.62-34.01-34.39-20.22-51.77l4.97,3.73,11.51-4.72c-12.38,23.7,24.31,29.66,21.01,2.99ZM365.61,225.05l2.58,11.98-4.54,3.01c-.15-5.01-3.59-8.91-6.01-12.99l7.97-2ZM345.11,401c-5.45,5-12.87,8.13-18.46,13.03-.44-1.88,1.05-2.38,1.99-3.5,4.8-5.77,10.86-15.28,19-13.49.34,1.96-1.31,2.85-2.53,3.96ZM347.64,391.03c2.55-5.7,6.83-10.19,9.7-15.79,1.89-3.67,3.97-8.76,5.32-12.68,1.29-3.74,1.09-9.08,3.96-11.53-1.27,9.24-2.35,17.95-5.81,26.68-2.16,5.46-6.22,16.45-13.18,13.31ZM433.16,422.91c-23.19-11.8-47.38-21.93-72.52-28.88,2.29-5.3,6.02-9.89,8.18-15.31,5.17-12.98,6.29-27.53,4.93-41.31-.1-1.05-.76-2.64.88-2.37,8.83,20.55,25.2,40,42.54,53.96,8.79,7.08,18.34,11.03,24.28,21.52l-8.28,12.38ZM426.32,387.85c-23.34-16.84-44.74-43.38-52.6-71.4-4.24-15.12-4.57-30.01-6.55-45.45h-3.06c-3.01,8.31,3.49,19.3-9.16,13.23-14.26-6.85-20.64-36.83-16.08-50.97,4.69-.37,12.91-6.42,16.23-2.19,1.31,1.68,4.44,8.64,4.17,10.5-.15,1.04-4.34,4.37-5.15,7.43-1.42,5.37,1.84,21.31,8.03,21.01,4.45-.22-2.92-10-3.28-11.7-1.57-7.55,2.4-13.04,9.77-14.26-3.57,6.52-4.27,27,3.18,10.67,1.46-3.21,8.83-25.56,10.31-25.66,6.65,5.47,15.28,9.78,21.86,15.13,2.83,2.3,3.89,6.57,8.58,6.94-19.59,57.41,61.88,80.11,74.65,21.79,6.71-2.51,13.73-2.57,20.12.91,11.21,6.11,2.65,13.31,3.41,23.57,1.97,26.57,27.4,42.69,51.88,31.63-9.93,30.52-34.33,51.54-62.63,64.86-30.39,14.3-46.22,13.76-73.67-6.04ZM531.14,443.04l-5.38,22.62c-2.76,17.85.73,36,7.87,52.38-17.12-21.14-16.32-52.27-2.49-74.99ZM386.64,736.05l7.5-4.99c1.31,0,2.55,6.53,2.5,7.97-1.21.64-11.12-1.33-9.99-2.98ZM538.56,695.45c-1.22.81-2.28,1.85-3.91,1.58l-2-9.99c8.18.03,16.07,1.66,5.91,8.41ZM417.65,861.03c1.15-4.67-1.22-11.49-.97-15.45.09-1.51,4.37-10.97,5.62-11.39,1.09-.37,6.49-.48,7.21-.02l10.13,22.86-21.99,4ZM512.48,886.38c-44.95,9.77-63.17-21.88-78.31-57.37-13.74-32.23-23.47-66.16-33.38-99.73l.85-2.72c37.1-21.62,79.24-42.29,123.37-40.39l29.6,109.4c1.16,1.19,2.48.04,2.86-1.18,2.48-7.96-6.21-27.41-4.38-30.34,5.28-2.92,11.01-5.18,16.57-7.46,4.92-2.02,14.99-6.55,19.71-7.29,9.64-1.51,32.26-1.59,40,4.47.82.64,1.84-.02,1.26,2.29l-21,1.01.98,3.51c6.58,2.1,29.96-1.81,34.06,1.98,2.07,1.91-2.92,10.19-2.08,13.46-.73.71-17.72.4-20.3,1.2-4.05,1.27.2,4.37,2.84,4.84,4.47.79,10.78-.58,15.5,0l-5.5,21c-16.42,6.55-28.35,21.92-47.5,22.99,1.72-5.06,5.5-12.58,3.25-17.75-.61-1.41-.23-1.52-2.24-1.24-11.4,36.47-37.1,70.85-76.17,79.34ZM614.65,826.55l6.99,6.48-11-7.01,22.99-15.97-4.02,12.47-14.97,4.04ZM624.21,839.06c-15,3.71-31.33,5.2-46.57,7.96.35-1.91,2.08-1.66,3.45-2.04,14.02-3.9,31.18-4.47,45.54-7.95.49,3.01-.74,1.61-2.42,2.02ZM559.64,869.02l14.45-15.94c12.78,3.73,25.07,9.37,37.79,13.21,2.2.67,4.54,1.7,6.75.74-.92,7.52-3.94,13.58,0,21l-58.99-19.01ZM618.82,853.71c-6.89,1.48-14.19,2.41-21.18,3.31.38-2,2.11-1.64,3.5-1.99,6.68-1.7,14.6-2.4,21.5-2.99.16,1.54-2.66,1.42-3.81,1.67ZM937.18,832.07c-1.97,3.92-4.44,6.71-8.55,8.45l-296.26,50.29c-7.32-1.22-11.21-7.72-9.28-14.84l67.02-262.97c3.31-10.23,7.2-14.32,18.03-15.97,23.09-3.52,49.41-3.79,72.99-6.01,69.67-6.56,139.37-13.18,209.02-19.98,3.72.27,8.19-.59,11.77.21,4.03.9,5.39,4.56,5.76,8.32-21.86,84.5-46.5,168.56-70.5,252.5Z"/>
      <path class="cls-1" d="M1150.53,761.61c2.02-2.76.72-15.99-.53-19.61-1.56-4.5-6.9-4.51-8.05-6.95-2.7-5.71,1.68-11.75-6.15-16.85-13.85-9-64.67-8.1-81.71-6.04-6.17.75-22.25,3.49-26.57,7.43-4.67,4.26-2.31,13.28-4.25,16.25-.31.48-5.18,2.06-6.49,3.5-2.94,3.24-4.59,18.14-1.88,21.76,3.78,5.06,4.87,1.2,6.44,10.56,6.25,37.18,7.33,77.19,13.27,114.73,2.16,13.64,3.63,15.88,17.43,19.57,17.22,4.6,37.11,4.74,54.63,1.78,9.09-1.53,23.56-4.32,24.7-15.3l14.16-125.84c-.05-3,3.8-3.35,5.01-4.99ZM1062.25,717.33c14.94-1.02,57.78-1.71,69.91,5.5,1.25.74,2.37,1.56,3.27,2.71-1.74,2.24-4.21,3.21-6.72,4.26-19.44,8.13-65.94,7.48-86.27,1.75-4.22-1.19-9-2.66-11.97-6.01,0-4.91,27.26-7.9,31.78-8.21ZM1112.47,900.54c-14.97,3.93-51.6,4.38-65.38-2.63-8.95-4.55-4.68-13.7-7.63-21.86,27.7,8.91,59.36,9.24,86.99,0-1.42,14.81,2.24,20.24-13.99,24.5ZM1081.46,793.04c2.74-.84,3.38,3.31,4.2,3.78.99.56,4.93.33,7.34,1.17,12.42,4.29,12.73,19.26,9.73,29.83-1.17,4.12-6.48,12.67-4.81,16.19.55,1.15,2.53,1.92,3.04,3.06.41.91.33,6.99,1.47,8.95-9.21,2.76-24.18,4.32-33.22.76-5.99-2.36.64-5.85.97-9.39.2-2.17-2.04-4.6-1.73-7.75,1.11-11.16,17.71-15.77,20.99-25.58-3.02-.46-1.84,2.56-4.94,3.56-3.71,1.2-6.05-.83-8.33-.38-3.97.79-8.91,9.85-11.76-2.66.1-.99,11.4-13.37,13.08-15,2.34-2.26,5.23-.09,3.95-6.53ZM1140.9,760.98c-1.42,1.43-1.25,3.45-3.05,4.95-8.48,7.07-58.63,7.81-70.94,7.15-5.09-.28-38.32-4.85-40.29-7.22-.48-.58,0-2.85-1.08-4.4-1.48-2.11-5.43-1.53-6.09-4.92-.83-4.23,1.27-9.04,1.16-13.34l3.84-1.16c-2.45,3.72,3.16,5.94,6.31,7.18,22.09,8.67,77.59,7.83,100.47,1.09,1.8-.53,8.04-2.53,8.97-3.52,1.25-1.34.57-5.77,2.74-4.75,2.65,1.24,4.26,14.62,2.52,16.51-.83.91-3.37,1.22-4.57,2.43Z"/>
      <path class="cls-1" d="M879.78,389.48c-3.48,0-6.31,2.82-6.31,6.31s2.82,6.31,6.31,6.31,6.31-2.82,6.31-6.31-2.82-6.31-6.31-6.31Z"/>
      <path class="cls-1" d="M1198.13,818.05c-16.63-1.58-36.05.55-53.04-1.06-3.63.23-6.23,3.11-2.43,5.54l60.88,1.42c2.04-4.89-1.09-5.48-5.41-5.89Z"/>
      <circle class="cls-1" cx="804.96" cy="452.48" r="6.23"/>
      <path class="cls-2" d="M368.2,237.03l-2.58-11.98-7.97,2c2.42,4.08,5.86,7.98,6.01,12.99l4.54-3.01Z"/>
      <path class="cls-2" d="M427.96,235.85c25.06-13.4,57.31,2.67,59.69,31.18,10.58-2.62,22.33-.67,29.5,7.99,11.51-17.85,34.52-21.61,52.49-11l-8.02-19.47c-7.33-3.26-16.16-2.25-23.47-3.53-5.58-.98-1.78-6.76,3.23-7.77,4.81-.97,9.54.42,14.26.28-16.29-18.92-12.39-71.93-32.29-85.71-9.42-6.52-22.62-8.52-33.7-9.81l1.64-2.85,15.35-3.13c-6.07-1.89-11.68-1.47-17.36,1.12-3.09,1.4-7.54,6.61-10.39,3.62-3.5-3.67-1.1-11.38-.25-15.75l-4.49,5.98c-4.04-3.87-2.59-10.13-1.51-14.98l-3,5c-3.7,2.74-7.39-15.28-5-18-4.07,1.48-2.31,11.99-3,13l-4.98-1.5c5.17,3.96,10.41,8.91,11.99,15.5l-7.51-1.98-.48,1.97c6.27,1.32,14.69,5.03,16,12-27.44,2.66-39.49,25.67-55.97,43.54-8.83,9.57-18.59,18.26-29.09,25.95l-6.5,17.51c10.82,6.28,19.74,16.27,32.26,18.82,4.01-2.24,6.36-5.71,10.62-8ZM468.86,210.32c6.54,2.09,19.2,7,16.75,15.69-11.9-2.87-22.33-8.52-34.79-10.65-10.62-1.82-14.34-.36-24.18.2-1.73.1-2.55,1.22-3.99-1.02,13.48-9.62,30.96-9.08,46.2-4.22Z"/>
      <path class="cls-2" d="M425.13,253.76l-4.97-3.73c-13.79,17.37-1.27,48.14,20.22,51.77,51.07,8.61,58.25-68.35,4.73-65.8-6.97.33-19.01,3.68-21.46,11.03,5.98-1.03,11.36-4.47,17.5-4.98,10.87-.91,22.25,3.69,27.2,13.78.48.98,4.55,11.05.8,9.2-3.72-4.53-5.76-10.52-11.5-12.99,3.3,26.67-33.39,20.71-21.01-2.99l-11.51,4.72ZM479.64,277.04c-1.64,4.02-2.79,8.79-6.99,10.99-.76-4.64,2.23-9.88,6.99-10.99Z"/>
      <path class="cls-2" d="M549.82,180.35l-8.17-15.31c7.68,20.39,4.5,45.03,17.98,62.99-2.59-16.11-3.11-32.54-9.81-47.68Z"/>
      <path class="cls-2" d="M593.08,479.09c1.27,6.64,2.18,11.28,1.44,18.32-1.36,12.87-10.1,25.35-10.87,38.62,6.96-1.35,12.06-11.22,14.05-17.44,4.5-14.05,1.57-29.31-4.06-42.54-1.86-.24-.75,2.02-.55,3.05Z"/>
      <path class="cls-2" d="M175.63,581.03l-12.98-26.99c1.47,9.54,1.95,23.71,12.98,26.99Z"/>
      <path class="cls-2" d="M143.64,486.03c3.08.52,1.56-.84,2-2.44,2.21-8.03,4.43-14.26,8.47-21.57l11.51-16.98c-13.92,9.16-20.77,24.67-21.99,40.99Z"/>
      <path class="cls-2" d="M200.63,566.03c-1.81-4.63-4.03-8.03-5.48-13.01-5.05-17.38-2.32-34,5.48-49.99-16.04,16.76-16.29,46.26,0,63Z"/>
      <path class="cls-2" d="M187.64,381.54v15.5c2.32.66,2.81-2.11,3.68-3.8,3.57-6.95,5.55-15.68,9.14-22.88,7.85-15.75,20.25-28.68,33.18-40.31-7.26,3.49-14.83,7.38-21.33,12.16-10.49,7.7-24.67,25.84-24.67,39.33Z"/>
      <path class="cls-2" d="M638.63,264.52c1.03-18.23-1.75-36.39-7.29-53.7-.34-1.05-.26-3.02-1.69-2.78,4,21.45,3.49,43.44,7,64.99l1.98-8.51Z"/>
      <path class="cls-2" d="M167.64,423.04c-.78-.71-6.03,3.63-7.01,4.48-9.63,8.23-17.4,19.68-18.98,32.51l7.17-13.31,18.81-23.67Z"/>
      <path class="cls-2" d="M328.64,410.53c-.94,1.13-2.43,1.63-1.99,3.5,5.59-4.9,13.01-8.03,18.46-13.03,1.22-1.12,2.87-2,2.53-3.96-8.14-1.79-14.2,7.72-19,13.49Z"/>
      <path class="cls-2" d="M613.65,513.03l4.94-9.55c3.97-13.35,1.64-24.1-3.18-36.71l-6.75-12.73c6.7,19.4,10.92,38.73,5,58.99Z"/>
      <path class="cls-2" d="M618.4,394.3l4.23-19.26-12.48,20.01c-2.75,6.97-3.88,14.52-3.5,21.98l11.75-22.73Z"/>
      <path class="cls-2" d="M577.64,248.03l-3.02.52c4.28,20.4,12.33,39.82,28.52,53.48,1.45-1.88-2.52-4.2-3.92-6.08-6.64-8.92-11.9-21.43-14.85-32.15-5.55-20.23-3.81-40.4-8.23-60.77-2.08-9.57-5.46-21.36-11.5-28.99,3.38,8.92,5.73,18.12,6.87,27.62,1.86,15.57-.87,32.19,6.13,46.37Z"/>
      <path class="cls-2" d="M257.64,509.03c23.43-6.3,36.61-28.9,38.99-51.99l-7.8,16.69c-8.11,13.9-21.24,23.09-31.19,35.3Z"/>
      <path class="cls-2" d="M277.42,234.31c-6.06,8.7-16.78,28.87-16.78,39.22v19.5c15.47-18.84,11.85-46.42,24.01-67.49l-7.23,8.77Z"/>
      <path class="cls-2" d="M554.9,263.28c-42.82-6.77-53.21,53.81-16.47,63.47,43.35,11.39,64.61-55.85,16.47-63.47ZM551.65,276.04c6.35,21.9-24.75,26.85-22.01,3l-4.99,1.99c-.34-3.75,4.03-6.8,6.96-8.53,12.04-7.08,23.84-3.32,33.01,6.06,1.47,1.51,2.26,4.21,3.58,5.42,1.23,1.14,4.95,1.43,4.45,3.54l-8.5,4.49c-2.63-7.06-5.43-12.4-12.48-15.98ZM578.63,280.04c5.62,14.87,1.26,30.2-11.98,39-1.31-1.78,7.26-29.56,8.82-33.67.67-1.78,1.23-4.61,3.16-5.33Z"/>
      <path class="cls-2" d="M1077.51,799.57c-1.69,1.63-12.98,14.01-13.08,15,2.85,12.51,7.79,3.45,11.76,2.66,2.28-.45,4.62,1.58,8.33.38,3.1-1,1.92-4.02,4.94-3.56-3.28,9.81-19.88,14.42-20.99,25.58-.31,3.15,1.93,5.58,1.73,7.75-.33,3.54-6.97,7.03-.97,9.39,9.03,3.56,24.01,2,33.22-.76-1.14-1.96-1.06-8.03-1.47-8.95-.51-1.14-2.5-1.91-3.04-3.06-1.68-3.52,3.63-12.07,4.81-16.19,3.01-10.57,2.69-25.54-9.73-29.83-2.42-.84-6.36-.61-7.34-1.17-.82-.47-1.47-4.61-4.2-3.78,1.28,6.45-1.61,4.27-3.95,6.53Z"/>
      <path class="cls-2" d="M1001.92,571.25c-3.58-.79-8.05.06-11.77-.21-69.65,6.81-139.35,13.43-209.02,19.98-23.58,2.22-49.9,2.49-72.99,6.01-10.83,1.65-14.72,5.74-18.03,15.97l-67.02,262.97c-1.93,7.11,1.96,13.62,9.28,14.84l296.26-50.29c4.11-1.74,6.58-4.53,8.55-8.45,24.01-83.94,48.64-168,70.5-252.5-.37-3.76-1.72-7.43-5.76-8.32ZM852.47,690.1c.58,8.1-7.42,18.81-15.99,17.99.91-8.09,7.4-17.41,15.99-17.99ZM860.14,745.57c-2.23,6.13-9,18.28-15.63,20.06-5.58,1.5-7.84-1.72-12.49-1.58-8.01.25-11.53,9.19-20.05.07-11.9-12.74-9.92-45.18,7.51-52.52,9.08-3.82,12.11,1.82,17.42,1.5,2.94-.18,7.51-4.22,11.34-4.78,5.75-.84,10.85,1.75,14.17,6.42-3.26,5.42-7.87,6.92-8.83,13.95-1.16,8.44.75,11.35,6.57,16.89Z"/>
      <path class="cls-2" d="M1128.72,729.79c2.51-1.05,4.98-2.01,6.72-4.26-.9-1.14-2.03-1.97-3.27-2.71-12.13-7.2-54.97-6.52-69.91-5.5-4.51.31-31.77,3.29-31.78,8.21,2.97,3.35,7.76,4.82,11.97,6.01,20.33,5.73,66.82,6.38,86.27-1.75Z"/>
      <path class="cls-2" d="M601.14,855.04c-1.39.35-3.12-.01-3.5,1.99,6.99-.91,14.3-1.83,21.18-3.31,1.16-.25,3.98-.13,3.81-1.67-6.9.59-14.82,1.29-21.5,2.99Z"/>
      <path class="cls-2" d="M618.63,867.03c-2.22.96-4.55-.07-6.75-.74-12.71-3.84-25.01-9.48-37.79-13.21l-14.45,15.94,58.99,19.01c-3.94-7.41-.93-13.48,0-21Z"/>
      <path class="cls-2" d="M577.64,847.03c15.24-2.77,31.57-4.26,46.57-7.96,1.69-.42,2.91.99,2.42-2.02-14.36,3.48-31.52,4.04-45.54,7.95-1.37.38-3.1.13-3.45,2.04Z"/>
      <polygon class="cls-2" points="633.63 810.04 610.64 826.01 621.64 833.03 614.65 826.55 629.62 822.51 633.63 810.04"/>
      <path class="cls-2" d="M1212.41,814.85c-3.49-5.82-9.89-6.43-13.33-6.75-4.79-.46-10.19-.67-16.99-.67-3.45,0-6.97.05-10.37.1-3.35.05-6.81.1-10.15.1-4.02,0-7.47-.08-10.57-.24l4.12-36.61c1.13-.74,2.39-1.78,3.48-3.26,5.74-7.84,1.51-26.88.85-28.79-1.87-5.41-5.82-8.13-8.55-9.61,0-.21,0-.41-.01-.6-.08-4.4-.22-12.58-9.64-18.7-9.22-5.99-28.7-9.02-57.9-9.02-11.45,0-23.12.55-30.46,1.44-7.34.89-25.18,3.64-32.11,9.97-5.6,5.11-6.23,12.25-6.48,16.87-1.88.96-3.55,2.05-4.92,3.55-3.72,4.09-5.11,11.23-5.61,16.5-.78,8.11.27,14.15,3.12,17.97,1.61,2.16,3.1,3.5,4.24,4.37.1.45.21,1.06.35,1.86,1.62,9.62,2.89,19.57,4,29.6l-51.79-1.52,59.45-214.84.08-.39c1.55-8.07-.27-16.16-5.01-22.18-4.68-5.95-11.67-9.45-19.67-9.84l-.7-.03-292.94,26.98-.33.05c-14.34,2.29-24.11,10.47-29.05,24.29l-.16.46-34.45,136.98c-1.17-1.16-2.43-2.33-3.79-3.28-8.45-5.9-22.31-7.14-32.45-7.14s-19.85,1.23-26.3,3.3c-6.52,2.08-12.68,4.87-18.65,7.55-.75.34-1.49.67-2.22,1l-9.2-36.06c6.45-5,15.32-12.51,13.25-26.21l-.07-.43-12.67-52.44c3.04-.51,5.44-1.25,5.6-1.29,18.38-5.66,30.37-22.47,34.33-39.93l11.55,5.26,2.49-.15c3.06-.19,12.36-.76,14.34-9.21,1.97-8.4-5.67-12.79-10.24-15.42-1.02-.59-2.74-1.58-3.22-1.97-5.18-4.45-8.33-12.26-9.52-19.74,21.79-5.27,41.25-25.92,43.47-48.22,2.06-20.75-3.1-32.67-8.57-45.29-1.99-4.59-4.04-9.33-5.92-14.88-4.06-11.97-1.46-15.72,5.49-25.75,1.75-2.52,3.73-5.38,5.74-8.62,1.31-2.11,2.28-4.68,3.14-6.95.15-.4.34-.91.52-1.36.72-.49,1.64-1.11,2.35-1.57,3.66-2.41,6.19-4.14,8.07-6.09,14.41-15,18.5-36.8,12.13-64.81-1.08-4.75-2.94-10.1-4.74-15.28-2.24-6.45-4.79-13.76-5.11-18.24-.15-2.14.91-6.85,1.76-10.64.96-4.27,1.96-8.68,2.23-12.8,3.13-48.08-21.38-111.25-46.03-146.27-14.77-20.98-33.8-38.72-55.05-51.3-22.89-13.55-47.88-20.72-72.28-20.72-10.17,0-20.36,1.23-30.27,3.66-2.31.57-4.46,1.44-6.35,2.22-1.17.48-2.94,1.2-3.53,1.3-.32.03-.71.05-1.13.05-1.58,0-3.57-.22-5.69-.45-2.68-.29-5.71-.63-8.88-.63-.99,0-1.96.03-2.88.1-59.66,4.2-89.15,57.12-115.18,103.81-8.59,15.42-16.71,29.98-25.45,42.1-2.95,4.09-5.98,8.04-8.9,11.86-14.02,18.28-27.25,35.55-29.25,64.01-.24,3.37.12,7.68.49,12.25.25,3.09.65,7.96.54,10.44-1.9,1.87-6.09,5.36-9.87,8.19-4.65,3.48-9.81,6.48-15.26,9.65-7.04,4.09-14.31,8.32-20.96,13.91-20.39,17.12-30.36,41.71-27.45,66.85-.36.24-.72.48-1.09.72-18.06,11.94-36.73,24.29-44.4,49.35-6.02,19.68-2.81,31.41.29,42.76,1.51,5.53,2.94,10.75,3.46,17.36.37,4.62-1.12,9.63-3.71,12.45-1.5,1.63-2.98,2.08-4.09,2.19-.11-.03-.22-.06-.33-.09-1.4-.38-3.33-.91-5.47-.91-3.4,0-6.45,1.33-8.58,3.74-2.13,2.41-3.08,5.58-2.66,8.94l.05.34c.48,3.05,2.03,6.2,4.91,8.65-8.94-2.19-17.78-3.75-26.49-4.65-6.46-.67-12.55-1.02-18.11-1.02-23.41,0-39.9,5.97-50.43,18.24-11.79,13.74-15.31,34.88-10.74,64.61l39.81,223.11H10.83l-1.27.34c-4.4,1.18-7.36,5.24-8.41,7.46-1.27,2.67-1.49,5.53-.66,8.18,1.11,3.98,4.18,8.68,12.3,9.83,1.76.25,4.21.36,8.17.36s8.28-.1,13.06-.2c4.66-.1,9.49-.21,13.38-.21.43,0,.83,0,1.21,0,.17,1.57.31,3.21.42,4.48.61,7.26,1.14,13.53,4.39,18.12,2.98,4.2,7.91,6.71,13.18,6.71,8.77,0,15.61-6.52,15.9-15.17l.03-.99-.16-.98c-1.2-7.26-2.4-14.52-3.59-21.78-3.07-18.71-6.24-38.05-9.61-57.07-4.11-23.21-9.08-47.05-13.89-70.12-7.24-34.72-14.72-70.62-19.44-105.1-2.86-20.88-4.83-40.31,2.45-48.65,4.37-5.01,13.07-7.45,26.57-7.45,2.14,0,4.42.06,6.79.19,44.98,2.42,95.25,27.06,122.24,59.93,20.81,25.34,38.02,65.53,51.16,119.46,11,45.16,17.34,91.33,22.54,134.49.35,2.89.53,6.39.72,10.1.31,6.03.63,12.27,1.77,17.5,1.81,8.3,9.42,14.32,18.1,14.32s16.99-6.1,17.53-17.76c.16-3.42-.32-8.21-.74-12.44-.14-1.41-.27-2.73-.36-3.84-4.24-52.72-14.14-104.09-21.69-137.9-12.37-55.37-29.66-118.24-78.45-163.64-.86-.8-1.97-1.65-3.87-3.09-.5-.38-1.19-.91-1.95-1.5.16-.31.31-.62.46-.93,6.15,5.16,13.06,9.44,20.87,11.56,3.74,1.01,6.41,1.46,8.67,1.46,7.46,0,10.23-5.12,10.91-6.69,3.07-7.17-2.24-12.75-6.12-16.83-.42-.44-.94-.99-1.41-1.5,3.77-.09,7.1-1.79,9.19-4.71.3-.42.56-.83.79-1.25,1.75,1.51,5.28,4.13,9.81,4.13,4.14,0,7.87-2.16,9.98-5.77l2.44-4.17-1.75-4.5c-.76-1.95-1.62-3.72-2.39-5.29-1-2.05-1.86-3.81-2.28-5.48-1.52-6.07-1.1-12.65,1.24-19.61,27.79-8.19,44.93-23.67,53.75-48.39,2.08-5.83,3.4-12.15,4.67-18.25,1.89-9.05,3.84-18.41,8.04-24.23,3.53-4.89,9.92-8.89,16.69-13.12,5.82-3.64,11.79-7.37,16.92-12.2,24.04,7.57,48.94,16.15,70.89,28.33,6.18,3.43,11.86,7.02,17.11,10.78-.81-.03-1.63-.06-2.44-.06-22.9,0-46.46,12.47-66.35,35.12-17.48,19.91-29.51,44.87-32.18,66.77-.3,2.43-.59,8.54,3.03,12.63,2.01,2.27,4.88,3.57,7.87,3.57,2.56,0,7.33-.94,10.39-7.27,1.9-3.93,3.17-8.4,4.39-12.73.86-3.04,1.67-5.92,2.59-8.19,7.34-18.21,17.91-34.51,29.76-45.89,13.71-13.16,28.81-19.83,44.87-19.83,3.26,0,6.6.28,9.94.83l4.5.74,3.51-2.91c.97-.8,1.77-1.72,2.4-2.72,6.08,7.04,11.04,14.57,14.9,22.67,14.89,37.62,23.94,78.29,32.69,117.62,4.37,19.63,8.85,39.77,14.07,59.66-4.19-.66-8.61-1-13.27-1-17.16,0-35.01,4.55-46.93,7.97-28.23,8.1-57.24,21.95-81.65,38.82l-25.9-123.29-12.15-7.4-5.39,3.88c-5.19,3.75-6.05,9.69-3.97,27.63,1.08,9.35,3.22,18.41,5.29,27.16,1.85,7.82,3.59,15.2,4.6,22.67l.08.59,2.9,11.16c1.64,7.18,3.02,14.69,4.35,21.94,1.58,8.64,3.22,17.57,5.36,26.34l.25,1.03c3.87,15.88,7.38,26.08,26.57,27.54l19.91,61.05c-.86,2.81-2.6,6.35-4.18,9.56-2.48,5.04-5.04,10.26-5.94,15.48-.83,4.82-.32,9.15.14,12.68l-72.23,13.94-10.68,8.25,3.77,12.9,3,2.02c2.72,1.83,5.67,2.04,7.65,2.04,4.57,0,11.6-1.31,19.01-2.77,1.23-.24,2.23-.44,2.87-.55,22.07-3.87,44.35-8.4,65.91-12.79,5.94-1.21,11.87-2.42,17.8-3.61,14.01,20.33,35.03,31.43,59.9,31.43,19.91,0,40.34-7.13,58.05-20.17,7.92,2.45,16.07,5.42,24,8.31,11.43,4.17,23.24,8.48,34.96,11.47l.73.19c4.98,1.28,10.63,2.72,16.73,2.72,1.16,0,2.31-.05,3.43-.16l.38-.04,292.33-49.58.4-.1c11.46-2.94,19-9.56,23.72-20.83.64-1.53,1.25-3.66,2.26-7.3.21-.74.47-1.68.75-2.66l62.06,1.56c.11,1.23.23,2.46.34,3.68,1.72,18.57,3.5,37.77,6.42,56.25,2.65,16.77,6.41,22.78,24.73,27.67,10.21,2.73,21.44,4.11,33.38,4.11h0c8.55,0,17.13-.72,25.5-2.13,9.28-1.56,31.02-5.23,32.98-24.04l6.85-60.91,61.97,1.44,2.63-6.31c2.51-6.02,1.19-10.36-.36-12.94ZM460.63,465.03c-46.71-7.69-79.78,32.06-95.48,71.02-2.5,6.21-3.96,14.63-6.7,20.3-2.01,4.14-2.7-.57-2.36-3.36,5.01-41.15,48.35-97.48,93.93-92.84.99.1,13.64,2.36,10.62,4.87ZM1021.21,818.11l-72.12-1.82c-1.24.24-4.26,13.47-5.43,16.26-3.43,8.18-8.29,12.78-16.99,15.01l-291.54,49.45c-5.97.56-11.77-1.03-17.48-2.48-20.98-5.36-42.49-15.2-63.5-21.14-35.02,28.4-86.49,31.73-111.09-11.38-30.03,5.99-60.07,12.42-90.23,17.71-3.89.68-20.09,4.28-22.22,2.84l-.84-2.88,3.4-2.62,78.37-15.13c.8-6.59-1.81-12.47-.65-19.16,1.37-7.94,9.35-18.58,10.63-27.24l-22.96-70.4c-19.59.45-20.41-4.66-24.42-21.09-3.88-15.9-6.05-32.32-9.71-48.29l-2.79-10.72c-2.27-16.69-7.93-32.87-9.87-49.62-.34-2.94-1.9-17.08-.11-18.37l2.79,1.7,28.21,134.3c25.76-20.39,59.29-37.4,90.99-46.5,21.83-6.26,51.28-12.63,71.99-1.5-18.91-64.95-27.15-133.41-52.13-196.36-24.8-52.4-85.73-73.19-137.39-89.27-9.99,12.65-29.53,18.19-38.7,30.89-8.62,11.95-9.01,30.9-14.02,44.98-8.88,24.91-26.74,37.1-51.82,43.43-4.22,9.6-6.03,20.1-3.46,30.36,1.09,4.35,3.46,7.89,5.04,11.97-1.23,2.11-4.14-.44-5.15-1.36-7.69-7.05-10.64-24.74-8.86-34.64-6.97,8.32-8.32,19.95-7.51,30.5.24,3.17,4.29,9.08-1.02,8.03-6.67-7.79-6.17-16.78-5.26-26.32.11-1.1,1.18-3.41-.7-3.2-7.49,12.82-10.55,30.36-2.21,43.69,2.93,4.67,16.29,14.22.15,9.85-12.01-3.25-22.03-13.51-29.94-22.55.66,8.35-1.03,16.51-6.93,22.64-.37,2.02,9.98,9.03,11.93,10.84,44.94,41.82,62.45,100.08,75.5,158.5,9.75,43.64,17.9,91.93,21.48,136.52.34,4.17,1.25,11.29,1.08,15.01-.53,11.43-14.1,9.9-15.87,1.77-1.61-7.41-1.36-18.63-2.33-26.67-9.28-76.95-26.1-198.45-75.9-259.1-29.42-35.83-83.19-61.08-129.43-63.57-52.49-2.82-52.25,23.49-46.25,67.25,7.93,57.85,23.12,117.67,33.4,175.61,4.64,26.2,8.82,52.49,13.18,78.74-.2,5.96-7.91,7.27-10.93,3.01-3.23-4.56-1.91-20.34-4.86-26.14-2.34-1.69-35.81.42-42.51-.53-2.01-.29-3.61-.63-4.13-2.84-.45-1,1.62-2.94,2.07-3.06h43.5l-41.87-234.63c-8.67-56.45,13.19-76.12,68.36-70.36,22.92,2.39,45.68,9.48,66.5,18.99-.68-2.83-2.62-4.86-3.75-7.74-3.84-9.77-4.09-18.97-2.25-29.26-3.78,6.95-26.71,10.73-28,2.51-.37-3.02,4.56-.41,6.51-.42,12.9-.11,19.29-14.04,18.38-25.46-1.73-21.77-12.08-30.52-4.16-56.4,7.43-24.3,27.19-34.96,46.81-48.24-5.15-24.71,3.98-47.98,23-63.95,10.9-9.16,24.43-14.72,35.79-23.21,2.76-2.07,12.01-9.28,13.17-11.83,1.98-4.37-.82-19.76-.35-26.35,2.18-31.1,19.53-47.47,36.29-70.71,35.72-49.55,60.48-136.66,133.21-141.79,6.61-.47,13.44,1.46,18.89.91,3.38-.34,7.59-2.85,11.27-3.75,57.83-14.18,114.41,18.06,147.03,64.4,24.86,35.32,47.05,96.5,44.23,139.86-.49,7.55-4.46,18.32-3.99,24.81.7,9.75,7.72,24.64,10.07,35.01,4.31,18.96,4.8,40.69-9.59,55.67-2.39,2.49-10.05,6.71-11.24,8.26-1.1,1.44-2.57,6.85-4.13,9.37-9.91,15.98-19.2,22.2-12.2,42.85,7.22,21.29,16.52,30.79,14.01,55.97-2.05,20.69-23.23,40.44-44,40.5-.6,12.43,3.86,27.76,13.48,36.03,4.05,3.48,17.62,8.25,5.02,9.03l-12.41-5.64-10.09-8.4c3.25,19.49-8.56,43.24-28.2,49.29-2.05.63-14.06,3.63-10.67-2.18.14-.24,3.68-1.63,4.8-2.7,10.82-10.27,11.19-27.98,7.78-41.64-.25-1.01-.28-3.01-1.7-2.78.94,15.89-6.53,30.11-17.85,40.69l17.84,73.82c1.61,10.67-7.98,15.03-14.64,20.95l13.66,53.54c10.29-3.86,20.27-9.39,30.74-12.74,11.6-3.71,39.8-4.58,49.97,2.52,2.42,1.69,5.68,5.93,7.31,6.69,2.19,1.02,6.38,1.23,8.95,2.54l37.28-148.23c3.64-10.19,10.46-16.07,21.22-17.78l291.9-26.89c10.83.53,17.39,9.54,15.35,20.15l-62.74,226.75,68.5,2.01,2.42,1.6-.34,3.47ZM1131.37,892.45c-1.15,10.98-15.61,13.76-24.7,15.3-17.53,2.95-37.41,2.82-54.63-1.78-13.8-3.69-15.27-5.93-17.43-19.57-5.94-37.54-7.02-77.56-13.27-114.73-1.57-9.36-2.66-5.5-6.44-10.56-2.71-3.62-1.06-18.52,1.88-21.76,1.31-1.44,6.18-3.03,6.49-3.5,1.93-2.98-.42-12,4.25-16.25,4.32-3.94,20.41-6.68,26.57-7.43,17.04-2.06,67.86-2.96,81.71,6.04,7.83,5.09,3.46,11.14,6.15,16.85,1.15,2.44,6.49,2.45,8.05,6.95,1.25,3.62,2.55,16.85.53,19.61-1.2,1.64-5.06,2-5.01,4.99l-14.16,125.84ZM1203.54,823.94l-60.88-1.42c-3.79-2.42-1.19-5.31,2.43-5.54,16.99,1.61,36.41-.52,53.04,1.06,4.31.41,7.45,1,5.41,5.89Z"/>
      <path class="cls-2" d="M1142.95,742.04c-2.17-1.02-1.49,3.41-2.74,4.75-.93.99-7.17,2.99-8.97,3.52-22.88,6.74-78.38,7.57-100.47-1.09-3.15-1.24-8.76-3.46-6.31-7.18l-3.84,1.16c.11,4.3-1.99,9.1-1.16,13.34.66,3.38,4.61,2.8,6.09,4.92,1.09,1.55.6,3.82,1.08,4.4,1.96,2.36,35.19,6.94,40.29,7.22,12.31.67,62.45-.08,70.94-7.15,1.8-1.5,1.63-3.52,3.05-4.95,1.2-1.2,3.73-1.52,4.57-2.43,1.73-1.89.12-15.27-2.52-16.51Z"/>
      <path class="cls-2" d="M1039.46,876.04c2.95,8.16-1.32,17.31,7.63,21.86,13.79,7.01,50.41,6.56,65.38,2.63,16.23-4.26,12.56-9.69,13.99-24.5-27.63,9.25-59.29,8.91-86.99,0Z"/>
      <path class="cls-2" d="M637.93,323.24c.34,3.84,1.52,8.62,1.7,12.3.72,14.64-1.34,29.63-5.98,43.49,17.19-15.93,12.28-39.39,4.98-58.99-1.89-.2-.8,2.09-.7,3.2Z"/>
      <path class="cls-2" d="M562.63,329.04c-24.48,11.05-49.91-5.06-51.88-31.63-.76-10.26,7.8-17.47-3.41-23.57-6.4-3.49-13.41-3.42-20.12-.91-12.77,58.32-94.24,35.62-74.65-21.79-4.69-.37-5.75-4.64-8.58-6.94-6.57-5.34-15.21-9.66-21.86-15.13-1.48.1-8.85,22.45-10.31,25.66-7.45,16.33-6.74-4.15-3.18-10.67-7.36,1.22-11.34,6.71-9.77,14.26.36,1.7,7.73,11.48,3.28,11.7-6.19.3-9.45-15.63-8.03-21.01.81-3.06,5-6.39,5.15-7.43.27-1.86-2.85-8.82-4.17-10.5-3.32-4.24-11.54,1.82-16.23,2.19-4.56,14.14,1.82,44.12,16.08,50.97,12.65,6.08,6.15-4.91,9.16-13.23h3.06c1.98,15.44,2.31,30.34,6.55,45.45,7.87,28.01,29.26,54.56,52.6,71.4,27.46,19.8,43.29,20.34,73.67,6.04,28.3-13.32,52.7-34.34,62.63-64.86ZM484.61,320.54c-.4,2.95-7.43-.6-8.97-.52-.35-5.37,9.41-2.69,8.97.52ZM475.99,368.97c-4.8.22-16.57-3.71-16.35-9.92,7.54,1.92,14.27,6.26,22.49,4.99,2.38,3.47-3.36,4.81-6.14,4.94ZM503.11,354.01c-12.28,2.23-35.33-4.91-46.83-10.12-2.35-1.06-13.04-6.71-12.58-9.23,3.29-4.92,3.74-1.35,6.6.21,10.2,5.58,34.47,12.31,45.92,14.07,2.28.35,8.32-.43,9.3.18,1.87,1.18.43,4.36-2.42,4.88ZM492.64,328.03c.07-.91-.27-1.95.22-2.8,1.04-1.79,9.35-3.11,10.59-8.92,1.03-4.82-2.45-16.38-1.8-23.75.09-1.07,2.29-13.66,4.98-10.51.35,5.73-.44,11.86-.04,17.54,1.05,14.58,7.26,26.06-13.95,28.45Z"/>
      <path class="cls-2" d="M590.89,808.27c2.24,5.17-1.53,12.69-3.25,17.75,19.15-1.07,31.09-16.44,47.5-22.99l5.5-21c-4.72-.58-11.03.79-15.5,0-2.64-.47-6.89-3.57-2.84-4.84,2.58-.81,19.57-.5,20.3-1.2-.83-3.27,4.15-11.55,2.08-13.46-4.11-3.79-27.48.12-34.06-1.98l-.98-3.51,21-1.01c.58-2.3-.44-1.65-1.26-2.29-7.74-6.06-30.36-5.98-40-4.47-4.72.74-14.79,5.27-19.71,7.29-5.57,2.29-11.29,4.55-16.57,7.46-1.83,2.94,6.86,22.39,4.38,30.34-.38,1.22-1.71,2.38-2.86,1.18l-29.6-109.4c-44.13-1.89-86.27,18.77-123.37,40.39l-.85,2.72c9.92,33.57,19.64,67.5,33.38,99.73,15.14,35.5,33.36,67.15,78.31,57.37,39.07-8.49,64.78-42.87,76.17-79.34,2.01-.28,1.63-.17,2.24,1.24Z"/>
      <path class="cls-2" d="M366.63,351.04c-2.87,2.46-2.66,7.79-3.96,11.53-1.35,3.92-3.44,9.01-5.32,12.68-2.87,5.59-7.15,10.09-9.7,15.79,6.96,3.14,11.01-7.85,13.18-13.31,3.46-8.73,4.54-17.44,5.81-26.68Z"/>
      <path class="cls-2" d="M417.17,389.01c-17.35-13.96-33.71-33.41-42.54-53.96-1.64-.27-.98,1.31-.88,2.37,1.36,13.77.24,28.33-4.93,41.31-2.15,5.41-5.89,10.01-8.18,15.31,25.14,6.95,49.34,17.08,72.52,28.88l8.28-12.38c-5.94-10.49-15.49-14.44-24.28-21.52Z"/>
      <path class="cls-2" d="M394.14,731.05l-7.5,4.99c-1.12,1.65,8.78,3.62,9.99,2.98.05-1.45-1.19-7.98-2.5-7.97Z"/>
      <path class="cls-2" d="M525.76,465.66l5.38-22.62c-13.84,22.73-14.63,53.85,2.49,74.99-7.14-16.38-10.63-34.53-7.87-52.38Z"/>
      <path class="cls-2" d="M538.56,695.45c10.16-6.75,2.27-8.38-5.91-8.41l2,9.99c1.63.27,2.7-.77,3.91-1.58Z"/>
      <path class="cls-2" d="M422.3,834.2c-1.25.42-5.53,9.88-5.62,11.39-.25,3.96,2.12,10.78.97,15.45l21.99-4-10.13-22.86c-.72-.46-6.11-.34-7.21.02Z"/>
      <path class="cls-2" d="M1110.27,640.68c.05-3.6-1.47-12.68-6.48-17.75-2.53-2.56-5.79-3.97-9.18-3.97-1.08,0-2.17.14-3.23.43-1.01.27-1.95.68-2.83,1.18-.05-1.64-.2-3.37-.46-5.19-.64-4.48-8.88-26.42-22.47-26.42-1.08,0-2.16.14-3.2.41-4.29,1.13-7.43,4.05-8.62,8.01-2.06,6.85,2.75,12.24,5.06,14.84.12.14.24.26.34.38,3.78,5.64,4.21,7.42,3.09,12.25-.46,1.99-3.97,4.67-7.07,7.03-3.17,2.42-6.76,5.16-9.52,8.75-6.48,8.45-9.04,18.14-7.38,28.02,1.82,10.83,8.79,20.95,19.12,27.78l4.15,2.74,4.69-1.66c6.55-2.32,8.44-6.79,8.99-9.25.06-.28.1-.55.14-.83,2.23,2.72,4.66,5.01,6.7,6.94l5.61,5.33,5.95-2.37c6.16-2.46,8.02-6.85,8.58-9.26,1.57-6.73-2.79-11.57-5.4-14.47-.42-.46-1.04-1.15-1.27-1.47-1.37-2.5-1.52-3.07,4.03-9.37,4.43-5.03,10.5-11.93,10.64-22.07Z"/>
      <path class="cls-2" d="M919.47,218.56c2.15-2.58,6.95-6.96,3.95-10.01l-98.98-79.52V2.54c0-.28-1.02-2.33-1.69-2.54-110.86-.02-166.79,131.88-93.83,215.05,47.27,53.88,142.89,60.81,190.54,3.51ZM818.44,5.04v124.5c5.84,6.16,12.89,11.88,19.52,17.48,26.09,21.98,53.38,42.58,79.4,64.66-56.57,66.94-165.24,49.99-202.78-28.28-38.87-81.03,14.44-173.5,103.86-178.36Z"/>
      <path class="cls-2" d="M938.61,191.71c42.99-75.08-1.78-172.77-86.14-189.21-2.92-.57-17.91-3.17-19.03-1.47v124.5l96.51,77.13c2.43.33,7.35-8.67,8.66-10.96ZM838.44,122.54V6.04c49.27,4.55,94.37,40.92,106.06,89.42l-104.03,29.11c-.44-.2-2.03-1.89-2.03-2.04ZM846.45,130.02l99.99-28.99c7.41,31.94,1.59,66.82-16.57,94.07l-83.42-65.09Z"/>
      <path class="cls-2" d="M946.44,101.03l-99.99,28.99,83.42,65.09c18.16-27.26,23.98-62.14,16.57-94.07Z"/>
      <path class="cls-2" d="M838.44,6.04v116.5c0,.14,1.6,1.83,2.03,2.04l104.03-29.11c-11.69-48.51-56.79-84.87-106.06-89.42Z"/>
      <path class="cls-2" d="M917.37,211.67c-26.02-22.08-53.31-42.68-79.4-64.66-6.64-5.59-13.69-11.32-19.52-17.48V5.04c-89.42,4.85-142.72,97.33-103.86,178.36,37.54,78.27,146.21,95.22,202.78,28.28Z"/>
      <path class="cls-2" d="M693.94,540.04h16.5v18.5c0,.26,2.34,2.73,3.36,2.42.53-.09,2.64-2.24,2.64-2.42v-18.5h413.5c.22,0,2.44-1.07,2.56-1.64.34-1.21-.48-4.36-1.56-4.36h-414.5v-258.5c0-1.99-6-1.98-6,0v258.5h-16.5c-.26,0-2.73,2.34-2.42,3.36.09.53,2.24,2.64,2.42,2.64Z"/>
      <path class="cls-2" d="M948.95,435.96c-3.16.21-5.45,3.21-8.46,1.57l-48.54-36.5c-2.21-3.61,2.2-10.25-5-15-9.57-6.32-22,2.39-18.75,13.39-13.9,11.45-28.32,23.17-42.86,34.02-1.85,1.38-11.78,9.29-12.55,9.44-2.67.52-6.03-4.98-13.72-.7-5.91,3.29-5.84,8.67-5.84,14.66l-61.83,39.66c-3.93,3.14-1.52,6.96,3,5.01l61.98-40.05c12.24,7.24,22.1-.53,20.27-14.21l54.69-41.76c6.65,3.38,10.37,2.91,17.1.05l48.57,36.43c3.01,3.79-.35,9.91,4.76,14.74,6.76,6.38,19.64,2.31,20.44-7.39.22-2.73-1.57-5.01-1.56-6.99,0-2.85,7.24-7.3,9.28-9.29,3.01-2.94,5.99-5.99,9.03-8.97,14.31-14.02,28.2-28.49,42.46-42.57,1.28-.59,7.31,4.58,14.04-.93,6.84-5.6,1.82-11.44,5.44-15.56l56.59-43.52c1.95-.67,5.04,2.57,8.44,2.57,17.4,0,14.95-27.46-2.78-23.78-8.44,1.75-9.33,9.27-8.95,16.55l-56.83,43.7c-3.38,1.54-5.54-1.64-9.41-1.55-10.02.23-13.54,9.85-10.76,18.45l-59.82,59.13c-2.54,1.16-5.5-.8-8.45-.6ZM804.96,458.71c-3.44,0-6.23-2.79-6.23-6.23s2.79-6.23,6.23-6.23,6.23,2.79,6.23,6.23-2.79,6.23-6.23,6.23ZM879.78,402.1c-3.48,0-6.31-2.82-6.31-6.31s2.82-6.31,6.31-6.31,6.31,2.82,6.31,6.31-2.82,6.31-6.31,6.31ZM1105.93,305.45c3.53,0,6.39,2.86,6.39,6.39s-2.86,6.39-6.39,6.39-6.39-2.86-6.39-6.39,2.86-6.39,6.39-6.39ZM1027.94,364.82c3.51,0,6.36,2.85,6.36,6.36s-2.85,6.36-6.36,6.36-6.36-2.85-6.36-6.36,2.85-6.36,6.36-6.36ZM956.41,447.8c0,3.44-2.79,6.22-6.22,6.22s-6.22-2.79-6.22-6.22,2.79-6.22,6.22-6.22,6.22,2.79,6.22,6.22Z"/>
      <rect class="cls-2" x="1037.6" y="77.04" width="82.88" height="6.05"/>
      <rect class="cls-2" x="1037.43" y="152.04" width="83.02" height="5"/>
      <path class="cls-2" d="M1039.94,120.04h54c.15,0,2.46-1.06,2.55-1.6.34-1.38-1.46-4.09-2.55-4.4h-54c-.26,0-2.73,2.34-2.42,3.36.09.53,2.24,2.64,2.42,2.64Z"/>
      <path class="cls-2" d="M1012.94,127.05h0c11.87.07,13.67-19.24.14-19.26-.47,0-.97.03-1.47.07-.18.02-.37.03-.55.06-.18.02-.37.05-.56.08-.44.07-.88.14-1.34.25,0,0,0,0,0,0-6.45,1.46-7.46,12.82-3.46,16.52.99.91,5.76,2.27,7.24,2.28Z"/>
      <path class="cls-2" d="M1008.15,88.83c7.03,2.05,13.04.09,14.1-7.56,1.24-8.92-5.26-11.78-13.09-10.01-7.61,1.71-7.41,15.7-1.01,17.58Z"/>
      <path class="cls-2" d="M1015.88,163.97c8.27-1.34,8.05-16.59,1.04-17.9-1.86-.35-7.01-.34-8.77.18-6.91,2.01-8.19,20.31,7.73,17.73Z"/>
    </g>
  </g>
</svg>