<svg width="26" height="26" viewBox="0 0 26 26" fill="none" xmlns="http://www.w3.org/2000/svg">
<rect width="26" height="26" rx="13" fill="#E3E5E4"/>
<path d="M13.002 6.5C9.40726 6.50393 6.49607 9.41962 6.5 13.0125C6.50092 14.1027 6.77624 15.1753 7.30062 16.1313L6.80156 19.1966L9.86851 18.6978C13.0171 20.424 16.9703 19.2725 18.6973 16.1253C20.4244 12.978 19.2726 9.02754 16.1237 7.3011C15.167 6.77654 14.0932 6.50104 13.002 6.5ZM9.75055 9.45348H11.523C11.6032 9.45348 11.6801 9.48533 11.7368 9.54202C11.7936 9.59871 11.8254 9.6756 11.8254 9.75578C11.8155 10.1589 11.8833 10.5602 12.0251 10.9378C12.0861 11.0642 12.0995 11.2083 12.0629 11.3438C12.0262 11.4793 11.9419 11.597 11.8254 11.6754L11.2054 12.28C11.4803 12.8166 11.8398 13.3055 12.27 13.728C12.6894 14.165 13.1765 14.5315 13.7128 14.8133L14.3177 14.1936C14.6202 13.8912 14.7593 13.8913 15.0557 13.994C15.4335 14.1357 15.835 14.2035 16.2383 14.1936C16.3174 14.1972 16.3922 14.2303 16.4481 14.2862C16.5041 14.3421 16.5371 14.4169 16.5408 14.4959V16.2673C16.5371 16.3463 16.5041 16.4211 16.4481 16.477C16.3922 16.5329 16.3174 16.566 16.2383 16.5696C14.4591 16.4922 12.7726 15.755 11.5078 14.5019C10.2521 13.2391 9.51422 11.5527 9.43901 9.77392C9.43973 9.69071 9.47251 9.61098 9.53053 9.5513C9.58855 9.49162 9.66735 9.45658 9.75055 9.45348Z" stroke="#7AAD7A" stroke-width="1.5" stroke-linecap="round" stroke-linejoin="round"/>
</svg>
